<svg width="20" height="20" viewBox="0 0 20 20" fill="none" xmlns="http://www.w3.org/2000/svg">
<g clip-path="url(#clip0_2233_3267)">
<path d="M19.7613 10.2312C19.7613 9.55141 19.7061 8.86797 19.5886 8.19922H10.1562V12.05H15.5577C15.3335 13.292 14.6134 14.3907 13.5588 15.0888V17.5874H16.7813C18.6736 15.8457 19.7613 13.2736 19.7613 10.2312Z" fill="#4285F4"/>
<path d="M10.157 20.0017C12.854 20.0017 15.1285 19.1162 16.7856 17.5876L13.5632 15.089C12.6666 15.699 11.5091 16.0444 10.1606 16.0444C7.55177 16.0444 5.33976 14.2843 4.54608 11.918H1.2207V14.4938C2.9183 17.8706 6.37595 20.0017 10.157 20.0017Z" fill="#34A853"/>
<path d="M4.5417 11.9163C4.12281 10.6743 4.12281 9.32947 4.5417 8.0875V5.51172H1.22C-0.198334 8.33737 -0.198334 11.6664 1.22 14.4921L4.5417 11.9163Z" fill="#FBBC04"/>
<path d="M10.1569 3.95805C11.5826 3.936 12.9606 4.47247 13.9931 5.45722L16.8481 2.60218C15.0403 0.904587 12.6409 -0.0287217 10.1569 0.000673888C6.37595 0.000673888 2.9183 2.13185 1.2207 5.51234L4.5424 8.08813C5.33241 5.71811 7.5481 3.95805 10.1569 3.95805Z" fill="#EA4335"/>
</g>
<defs>
<clipPath id="clip0_2233_3267">
<rect width="20" height="20" fill="white"/>
</clipPath>
</defs>
</svg>
