<svg width="100" height="34" viewBox="0 0 100 34" fill="none" xmlns="http://www.w3.org/2000/svg">
<path d="M0 0.84375L30.0443 33.5006H0V0.84375Z" fill="#274BF1"/>
<g filter="url(#filter0_b_2162_3474)">
<path d="M0 0.5H18.3923C24.1638 0.5 28.8425 5.1787 28.8425 10.9502C28.8425 16.7217 24.1638 21.4004 18.3923 21.4004H0V0.5Z" fill="url(#paint0_linear_2162_3474)"/>
<path d="M0.328275 0.828275H18.3923C23.9825 0.828275 28.5142 5.36 28.5142 10.9502C28.5142 16.5404 23.9825 21.0721 18.3923 21.0721H0.328275V0.828275Z" stroke="url(#paint1_linear_2162_3474)" stroke-width="0.656551"/>
</g>
<path d="M36.6094 16.6488C36.6094 13.8242 37.2513 11.6999 38.5353 10.2759C39.8425 8.85192 41.5933 8.13992 43.7877 8.13992C44.0211 8.13992 44.1962 8.1516 44.3129 8.17494V10.3109C44.1962 10.2876 44.0211 10.2759 43.7877 10.2759C42.2703 10.2759 41.0681 10.8128 40.181 11.8866C39.2939 12.9605 38.8504 14.5479 38.8504 16.6488V25.753H36.6094V16.6488Z" fill="white"/>
<path d="M44.8463 17.034C44.8463 15.3999 45.2315 13.8942 46.0019 12.5169C46.7956 11.1163 47.8694 10.0074 49.2234 9.1904C50.5773 8.37336 52.083 7.96484 53.7404 7.96484C55.3045 7.96484 56.7518 8.33835 58.0824 9.08536C59.4364 9.80902 60.5219 10.8478 61.3389 12.2018C62.1559 13.5324 62.5878 15.0498 62.6345 16.7539V17.069C62.6345 17.3491 62.6228 17.5592 62.5995 17.6993H47.1924C47.2391 18.8432 47.5543 19.8936 48.1379 20.8507C48.7215 21.7845 49.5035 22.5315 50.4839 23.0918C51.4644 23.6287 52.5499 23.8971 53.7404 23.8971C54.8376 23.8971 55.8531 23.6754 56.7868 23.2318C57.7439 22.765 58.5376 22.1463 59.1679 21.376H61.8992C61.0821 22.8 59.9383 23.9322 58.4676 24.7725C57.0203 25.6129 55.4562 26.0331 53.7754 26.0331C52.118 26.0331 50.6006 25.6363 49.2234 24.8426C47.8694 24.0255 46.7956 22.9284 46.0019 21.5511C45.2315 20.1738 44.8463 18.6681 44.8463 17.034ZM60.2534 15.8084C59.9733 14.1744 59.2379 12.8204 58.0474 11.7466C56.8568 10.6494 55.4329 10.1008 53.7754 10.1008C52.0947 10.1008 50.6473 10.6494 49.4334 11.7466C48.2196 12.8437 47.4726 14.1977 47.1924 15.8084H60.2534Z" fill="white"/>
<path d="M79.954 16.5438V25.753H77.713V16.5438C77.713 14.4195 77.2228 12.8204 76.2423 11.7466C75.2619 10.6494 73.9313 10.1008 72.2505 10.1008C70.5697 10.1008 69.2391 10.6494 68.2587 11.7466C67.2782 12.8204 66.788 14.4195 66.788 16.5438V25.753H64.547V16.5438C64.547 13.6958 65.2473 11.5598 66.6479 10.1358C68.0486 8.68851 69.9161 7.96484 72.2505 7.96484C74.5849 7.96484 76.4524 8.68851 77.8531 10.1358C79.2537 11.5598 79.954 13.6958 79.954 16.5438Z" fill="white"/>
<path d="M90.914 7.96484C92.5481 7.96484 94.0538 8.37336 95.4311 9.1904C96.8317 9.9841 97.9289 11.0813 98.7226 12.4819C99.5396 13.8592 99.9482 15.3649 99.9482 16.999C99.9482 18.6331 99.5396 20.1504 98.7226 21.5511C97.9289 22.9284 96.8317 24.0255 95.4311 24.8426C94.0538 25.6363 92.5481 26.0331 90.914 26.0331C89.28 26.0331 87.7743 25.6363 86.397 24.8426C85.0197 24.0255 83.9225 22.9284 83.1055 21.5511C82.2884 20.1504 81.8799 18.6331 81.8799 16.999C81.8799 15.3649 82.2884 13.8592 83.1055 12.4819C83.9225 11.0813 85.0197 9.9841 86.397 9.1904C87.7743 8.37336 89.28 7.96484 90.914 7.96484ZM90.9491 10.1008C89.6885 10.1008 88.5329 10.4043 87.4825 11.0112C86.4553 11.6182 85.6383 12.4586 85.0313 13.5324C84.4244 14.5829 84.1209 15.7384 84.1209 16.999C84.1209 18.2596 84.4244 19.4151 85.0313 20.4656C85.6383 21.516 86.467 22.3564 87.5175 22.9867C88.568 23.5937 89.7118 23.8971 90.9491 23.8971C92.1863 23.8971 93.3185 23.5937 94.3456 22.9867C95.3961 22.3798 96.2131 21.5511 96.7967 20.5006C97.4037 19.4268 97.7071 18.2596 97.7071 16.999C97.7071 15.7384 97.4037 14.5829 96.7967 13.5324C96.2131 12.4586 95.4078 11.6182 94.3806 11.0112C93.3535 10.4043 92.2096 10.1008 90.9491 10.1008Z" fill="white"/>
<defs>
<filter id="filter0_b_2162_3474" x="-3" y="-2.5" width="34.8418" height="26.8984" filterUnits="userSpaceOnUse" color-interpolation-filters="sRGB">
<feFlood flood-opacity="0" result="BackgroundImageFix"/>
<feGaussianBlur in="BackgroundImageFix" stdDeviation="1.5"/>
<feComposite in2="SourceAlpha" operator="in" result="effect1_backgroundBlur_2162_3474"/>
<feBlend mode="normal" in="SourceGraphic" in2="effect1_backgroundBlur_2162_3474" result="shape"/>
</filter>
<linearGradient id="paint0_linear_2162_3474" x1="11.3458" y1="4.68003" x2="14.4212" y2="21.4004" gradientUnits="userSpaceOnUse">
<stop stop-color="#00E8BE"/>
<stop offset="1" stop-color="#00B0E8" stop-opacity="0"/>
</linearGradient>
<linearGradient id="paint1_linear_2162_3474" x1="27.5" y1="9.50049" x2="22.5" y2="3.50049" gradientUnits="userSpaceOnUse">
<stop stop-color="white"/>
<stop offset="1" stop-color="white" stop-opacity="0"/>
</linearGradient>
</defs>
</svg>
